<?xml version="1.0" encoding="utf-8"?>
<!-- Generator: Adobe Illustrator 16.0.0, SVG Export Plug-In . SVG Version: 6.00 Build 0)  -->
<!DOCTYPE svg PUBLIC "-//W3C//DTD SVG 1.1//EN" "http://www.w3.org/Graphics/SVG/1.1/DTD/svg11.dtd">
<svg version="1.1" id="Layer_1" xmlns="http://www.w3.org/2000/svg" xmlns:xlink="http://www.w3.org/1999/xlink" x="0px" y="0px"
	 width="157.047px" height="169.799px" viewBox="0 0 157.047 169.799" enable-background="new 0 0 157.047 169.799"
	 xml:space="preserve">
<g>
	<path fill-rule="evenodd" clip-rule="evenodd" fill="#2497F2" d="M127.233,111.582c0.876,5.811-3.126,11.232-8.935,12.107
		l-66.284,9.988c-5.811,0.875-11.229-3.129-12.105-8.938l-9.987-66.283c-0.875-5.812,3.125-11.23,8.935-12.106l66.284-9.987
		c5.81-0.875,11.23,3.125,12.105,8.936L127.233,111.582z M103.691,52.527c-0.182-1.208-1.279-2.044-2.452-1.868l-54.443,8.203
		c-1.172,0.177-1.975,1.299-1.792,2.507l8.46,56.144c0.181,1.207,1.278,2.043,2.45,1.867l54.443-8.205
		c1.174-0.176,1.976-1.298,1.794-2.506L103.691,52.527z"/>
	<path fill-rule="evenodd" clip-rule="evenodd" fill="#3ABEAD" d="M47.859,80.323c21.082-2.005,40.294,12.812,43.488,34.007
		c3.306,21.936-11.799,42.396-33.734,45.701c-21.935,3.307-42.397-11.797-45.702-33.732c-2.669-17.712,6.665-34.463,21.905-41.998
		l2.316,15.378c-7.329,5.515-11.477,14.772-10.015,24.478c2.124,14.092,15.267,23.793,29.356,21.67s23.792-15.266,21.669-29.357
		c-2.011-13.346-13.912-22.756-27.137-21.906L47.859,80.323z"/>
	<path fill-rule="evenodd" clip-rule="evenodd" fill="#6038B2" d="M120.795,68.857c6.755-5.579,10.499-14.461,9.1-23.756
		c-2.124-14.088-15.268-23.791-29.357-21.668C86.448,25.556,76.747,38.701,78.87,52.79c2.062,13.688,14.523,23.232,28.149,21.823
		l2.142,14.216c-21.474,2.585-41.253-12.362-44.497-33.896C61.359,32.997,76.462,12.534,98.396,9.229
		c21.937-3.305,42.399,11.799,45.704,33.734c2.613,17.34-6.277,33.757-20.952,41.509L120.795,68.857z"/>
</g>
</svg>
